<?xml version="1.0" standalone="no"?>
<!DOCTYPE svg PUBLIC "-//W3C//DTD SVG 20010904//EN"
 "http://www.w3.org/TR/2001/REC-SVG-20010904/DTD/svg10.dtd">
<svg version="1.0" xmlns="http://www.w3.org/2000/svg"
 width="520.000000pt" height="520.000000pt" viewBox="0 0 520.000000 520.000000"
 preserveAspectRatio="xMidYMid meet">
<metadata>
Created by potrace 1.14, written by Peter Selinger 2001-2017
</metadata>
<g transform="translate(0.000000,520.000000) scale(0.100000,-0.100000)"
fill="#000000" stroke="none">
<path d="M2408 5195 c-1 -2 -32 -6 -68 -9 -96 -8 -145 -16 -249 -38 -51 -11
-103 -21 -114 -24 -90 -17 -345 -109 -472 -170 -633 -303 -1114 -845 -1334
-1503 -34 -101 -87 -314 -96 -385 -3 -27 -8 -52 -10 -56 -3 -6 -18 -150 -18
-180 0 -8 -4 -21 -10 -27 -6 -9 -6 -13 0 -13 6 0 9 -12 7 -27 -6 -44 -6 -235
0 -260 3 -13 0 -25 -5 -28 -5 -4 -6 -12 -2 -18 9 -15 12 -29 16 -98 2 -31 6
-60 9 -65 3 -5 5 -24 4 -42 0 -17 2 -32 6 -32 3 0 5 -8 3 -17 -1 -10 1 -22 5
-28 8 -11 10 -21 13 -82 1 -22 5 -39 10 -36 6 3 10 -28 6 -53 0 -4 3 -10 8
-13 13 -9 34 -101 27 -113 -5 -7 -2 -8 6 -3 8 5 11 3 8 -6 -3 -8 1 -25 8 -39
24 -49 53 -143 47 -153 -4 -6 -1 -7 7 -2 10 6 12 4 7 -9 -4 -9 -3 -15 2 -11
12 7 35 -61 26 -75 -4 -6 -3 -9 2 -8 4 2 8 0 8 -3 0 -4 8 -16 19 -28 10 -11
16 -27 13 -36 -4 -8 -3 -14 1 -12 4 1 7 -1 7 -4 0 -3 7 -14 15 -23 8 -10 15
-25 16 -34 2 -8 7 -18 12 -21 15 -10 33 -51 27 -61 -4 -6 -3 -10 2 -9 20 3 25
-2 13 -16 -11 -13 -10 -14 3 -10 10 4 17 -1 22 -14 3 -12 13 -28 22 -37 14
-13 14 -17 2 -26 -11 -8 -11 -9 3 -4 11 3 19 -2 23 -15 4 -10 11 -19 16 -19 5
0 9 -7 9 -15 0 -8 5 -15 12 -15 6 0 8 -3 5 -6 -4 -4 2 -15 13 -24 13 -11 18
-24 14 -36 -4 -13 -3 -15 3 -6 7 9 15 4 33 -20 13 -18 24 -35 24 -38 0 -3 14
-19 31 -36 67 -69 130 -146 127 -155 -1 -6 2 -8 8 -4 11 7 67 -53 63 -67 -2
-4 5 -4 14 -1 13 5 15 2 10 -11 -4 -10 -3 -15 3 -11 14 9 76 -55 72 -74 -2
-14 -1 -14 7 -1 8 12 13 12 30 -4 11 -10 18 -23 15 -27 -3 -5 3 -6 12 -2 12 4
15 3 10 -5 -4 -7 -1 -12 9 -12 10 0 13 -5 9 -12 -4 -6 -3 -8 3 -5 6 4 21 -3
34 -14 13 -11 36 -28 52 -37 15 -9 27 -20 27 -24 0 -4 7 -8 16 -8 10 0 14 -6
11 -14 -4 -10 0 -12 15 -8 14 3 19 1 14 -6 -4 -7 -1 -12 9 -12 14 0 99 -52
115 -69 3 -3 12 -7 20 -9 8 -2 17 -8 18 -13 2 -5 8 -7 13 -3 5 3 9 0 9 -5 0
-6 3 -10 8 -10 20 3 23 -3 11 -18 -12 -16 -12 -17 2 -5 14 10 23 9 55 -7 22
-11 47 -22 58 -25 14 -5 16 -9 7 -19 -8 -10 -7 -14 4 -14 8 0 12 4 9 9 -3 4 2
8 10 8 9 0 16 -4 16 -10 0 -5 9 -10 20 -10 11 0 20 -5 20 -11 0 -5 3 -8 8 -6
4 3 18 0 32 -6 14 -5 30 -11 37 -12 20 -5 49 -24 35 -25 -7 0 -10 -5 -7 -11 5
-6 12 -4 21 8 8 11 13 13 14 6 0 -7 5 -12 12 -10 7 1 12 -3 13 -10 0 -6 4 -15
9 -20 5 -5 6 -3 2 5 -10 17 39 16 56 -1 7 -8 20 -12 30 -9 10 2 18 -1 18 -7 0
-6 3 -10 8 -10 4 1 20 1 36 0 22 -1 27 -5 22 -17 -5 -14 -4 -15 8 -5 10 9 27
8 72 -4 32 -8 68 -15 81 -15 12 0 24 -4 27 -8 2 -4 22 -9 42 -10 21 -2 41 -8
45 -14 4 -6 9 -6 12 -1 8 12 129 -6 139 -21 5 -8 8 -7 8 1 0 7 14 11 35 10 23
-1 34 -6 31 -14 -3 -7 -1 -15 5 -18 5 -4 9 -3 8 2 -5 30 2 35 23 17 12 -10 18
-13 14 -6 -8 13 1 15 44 13 49 -3 65 -9 62 -21 -1 -6 2 -9 8 -5 6 3 8 10 6 14
-3 4 17 9 45 10 30 1 48 -2 45 -8 -4 -5 -2 -13 4 -16 6 -4 9 -2 8 3 -2 6 -1
10 2 9 3 0 16 5 29 12 22 12 23 12 17 -5 -6 -18 -5 -18 7 -2 13 16 15 16 31 0
16 -16 17 -16 10 2 -6 16 -4 18 20 14 14 -3 29 -1 32 4 3 5 12 1 20 -9 9 -12
13 -13 12 -4 -3 14 36 22 119 25 17 1 29 5 26 9 -3 5 9 6 25 4 17 -3 32 -1 34
3 2 5 19 11 38 13 19 3 35 6 35 7 0 2 11 4 64 16 28 6 33 4 27 -7 -5 -9 -2 -8
6 2 21 25 103 50 118 36 10 -9 11 -9 7 -1 -9 16 25 28 35 12 6 -10 8 -8 8 5 0
9 6 18 13 19 6 0 17 2 22 3 6 0 25 9 42 18 18 10 34 17 35 16 5 -1 61 21 92
37 22 10 32 11 43 3 10 -9 12 -9 8 2 -4 10 10 23 42 39 27 14 54 24 61 23 6 0
12 2 12 7 0 11 51 31 62 24 7 -4 8 -2 4 4 -8 14 109 83 129 76 8 -4 15 -1 15
6 0 6 -6 8 -12 4 -7 -3 1 5 17 20 17 14 38 28 48 31 9 4 17 11 17 16 0 6 5 7
10 4 6 -3 10 -2 10 4 0 14 55 42 64 33 4 -3 4 2 0 12 -5 14 -4 17 4 12 7 -4
12 -2 12 5 0 7 2 10 5 7 3 -3 29 16 57 43 28 26 56 45 61 42 6 -3 7 -2 4 4 -8
12 31 46 43 38 6 -4 7 2 3 12 -3 10 -2 15 2 11 5 -5 15 1 22 12 8 11 19 18 24
14 5 -3 8 -2 7 3 -5 16 41 65 53 57 7 -4 9 -3 6 3 -4 6 6 23 21 39 15 16 43
49 62 74 19 25 49 60 67 77 18 18 32 34 31 35 -6 7 30 47 36 41 4 -4 4 1 0 11
-5 13 -4 17 3 13 6 -4 13 3 16 14 3 12 10 18 16 14 6 -3 9 0 6 7 -7 19 21 52
37 42 10 -6 10 -4 -1 9 -12 15 -9 21 10 19 4 -1 6 6 5 16 0 9 5 16 12 14 8 -1
11 2 8 7 -9 14 29 77 44 73 6 -1 9 2 6 7 -7 11 13 71 24 71 4 0 11 11 14 25 4
16 11 23 18 19 6 -4 8 -3 4 4 -3 6 5 35 18 64 38 82 75 174 108 273 33 98 31
93 43 150 4 22 11 47 15 55 5 8 11 40 15 70 4 30 10 60 13 65 4 6 7 19 8 30 1
11 4 47 8 80 5 51 2 44 -18 -41 -137 -574 -516 -1029 -1048 -1259 -124 -53
-300 -105 -413 -121 -27 -3 -59 -9 -70 -11 -40 -10 -372 -11 -430 -2 -152 23
-160 25 -257 50 -270 68 -541 218 -761 419 -127 116 -275 306 -360 461 -55
100 -146 333 -161 411 -2 13 -9 43 -15 68 -35 153 -54 466 -29 482 9 5 9 8 1
8 -6 0 -10 8 -8 18 2 9 4 36 4 60 1 24 4 41 8 39 5 -3 8 11 9 31 1 57 8 102
15 102 4 0 6 6 6 13 -3 23 14 107 21 107 4 0 8 11 8 25 1 14 5 33 9 43 5 9 9
24 11 32 2 8 7 23 13 35 6 11 20 46 32 78 12 35 25 55 31 51 6 -4 8 -2 4 4 -8
13 44 123 55 116 4 -2 11 1 15 7 4 8 3 9 -4 5 -14 -8 -16 6 -3 20 5 5 19 27
31 49 33 60 120 175 133 175 6 0 7 3 4 7 -4 3 8 21 27 39 19 18 31 36 27 40
-3 4 2 4 12 1 11 -4 16 -3 12 3 -11 18 188 206 206 194 5 -3 8 0 7 8 -2 7 5
12 14 12 10 -1 16 2 13 6 -7 12 77 71 93 65 7 -2 11 -1 8 4 -3 5 10 18 30 30
40 24 48 26 38 9 -4 -7 -3 -8 5 -4 6 4 9 11 6 16 -5 8 101 69 122 71 5 0 14 5
21 11 8 7 17 6 30 -3 15 -12 16 -12 5 2 -11 14 -7 18 28 32 23 9 46 14 50 11
5 -3 9 -1 9 3 0 5 14 14 30 20 23 9 28 8 23 0 -5 -9 -3 -9 8 0 32 25 211 72
296 77 18 1 36 5 39 9 10 10 26 9 20 -1 -3 -5 1 -9 9 -9 8 0 12 4 9 9 -3 4 10
8 28 9 18 1 54 2 80 4 34 2 46 0 41 -9 -5 -7 -2 -7 8 1 18 15 55 10 51 -7 -1
-6 2 -9 8 -5 6 3 8 10 5 15 -3 4 28 6 68 4 39 -1 85 -3 100 -3 16 -1 26 -5 22
-10 -3 -5 0 -13 6 -17 8 -5 9 -3 4 6 -12 19 73 9 205 -24 36 -9 72 -20 80 -23
8 -3 24 -8 35 -10 11 -1 29 -7 40 -12 20 -9 56 -23 65 -26 30 -8 80 -31 80
-37 0 -4 3 -7 8 -6 4 1 24 -4 45 -12 24 -9 36 -19 32 -28 -3 -7 0 -10 6 -7 13
9 81 -23 74 -35 -3 -5 -1 -11 4 -14 5 -4 12 -2 16 4 4 6 18 1 35 -12 16 -12
27 -25 24 -29 -3 -5 2 -6 10 -3 8 3 23 -3 34 -14 11 -11 24 -21 29 -23 15 -6
72 -50 104 -80 16 -15 31 -24 34 -21 3 3 5 -3 5 -13 0 -10 3 -16 6 -12 10 10
86 -72 78 -84 -4 -8 -3 -9 4 -5 13 8 52 -23 52 -41 0 -7 5 -13 11 -13 5 0 7
-5 3 -12 -4 -6 -3 -8 4 -5 13 9 94 -92 85 -107 -3 -6 -3 -8 2 -4 7 7 35 -14
35 -27 0 -3 8 -14 18 -25 9 -10 26 -36 37 -57 11 -21 22 -40 26 -43 3 -3 13
-18 21 -35 9 -16 23 -43 31 -60 9 -16 17 -37 19 -45 2 -8 8 -18 13 -22 6 -4
10 -11 11 -15 0 -4 7 -24 15 -43 20 -44 69 -183 74 -210 3 -11 7 -30 11 -42 3
-13 7 -34 10 -47 3 -13 9 -40 14 -60 21 -84 0 86 -26 209 -97 453 -339 904
-666 1241 -65 67 -95 95 -213 198 -44 38 -244 180 -279 198 -17 9 -33 19 -36
22 -12 15 -257 138 -340 171 -143 57 -365 124 -485 145 -16 2 -39 7 -50 9 -11
2 -47 7 -80 11 -32 4 -68 9 -80 12 -23 5 -461 13 -467 8z"/>
<path d="M3226 4422 c-3 -5 1 -9 9 -9 8 0 12 4 9 9 -3 4 -7 8 -9 8 -2 0 -6 -4
-9 -8z"/>
<path d="M3720 4380 c-9 -6 -10 -10 -3 -10 6 0 15 5 18 10 8 12 4 12 -15 0z"/>
<path d="M2919 4353 c-13 -16 -12 -17 4 -4 16 13 21 21 13 21 -2 0 -10 -8 -17
-17z"/>
<path d="M2507 4199 c7 -7 15 -10 18 -7 3 3 -2 9 -12 12 -14 6 -15 5 -6 -5z"/>
<path d="M4467 4019 c7 -7 15 -10 18 -7 3 3 -2 9 -12 12 -14 6 -15 5 -6 -5z"/>
<path d="M2135 3940 c3 -5 8 -10 11 -10 2 0 4 5 4 10 0 6 -5 10 -11 10 -5 0
-7 -4 -4 -10z"/>
<path d="M5142 2910 c0 -14 2 -19 5 -12 2 6 2 18 0 25 -3 6 -5 1 -5 -13z"/>
<path d="M5141 2364 c0 -11 3 -14 6 -6 3 7 2 16 -1 19 -3 4 -6 -2 -5 -13z"/>
<path d="M1216 467 c3 -10 9 -15 12 -12 3 3 0 11 -7 18 -10 9 -11 8 -5 -6z"/>
<path d="M3765 340 c-3 -6 1 -7 9 -4 18 7 21 14 7 14 -6 0 -13 -4 -16 -10z"/>
<path d="M1610 256 c0 -2 8 -10 18 -17 15 -13 16 -12 3 4 -13 16 -21 21 -21
13z"/>
<path d="M3220 140 c-9 -6 -10 -10 -3 -10 6 0 15 5 18 10 8 12 4 12 -15 0z"/>
<path d="M2975 79 c-3 -4 2 -6 10 -5 21 3 28 13 10 13 -9 0 -18 -4 -20 -8z"/>
<path d="M2530 59 c0 -5 5 -7 10 -4 6 3 10 8 10 11 0 2 -4 4 -10 4 -5 0 -10
-5 -10 -11z"/>
<path d="M2650 59 c0 -5 5 -7 10 -4 6 3 10 8 10 11 0 2 -4 4 -10 4 -5 0 -10
-5 -10 -11z"/>
</g>
</svg>
